<svg xmlns="http://www.w3.org/2000/svg" viewBox="0 0 50 50">
    <path style="text-indent:0;text-align:start;line-height:normal;text-transform:none;block-progression:tb;-inkscape-font-specification:Bitstream Vera Sans" d="M 7 2 L 7 3 L 7 47 L 7 48 L 8 48 L 42 48 L 43 48 L 43 47 L 43 15 L 43 14.59375 L 42.71875 14.28125 L 30.71875 2.28125 L 30.40625 2 L 30 2 L 8 2 L 7 2 z M 9 4 L 29 4 L 29 15 L 29 16 L 30 16 L 41 16 L 41 46 L 9 46 L 9 4 z M 31 5.4375 L 39.5625 14 L 31 14 L 31 5.4375 z M 14 10 L 14 12 L 27 12 L 27 10 L 14 10 z M 14 14 L 14 16 L 27 16 L 27 14 L 14 14 z M 14 18 L 14 20 L 37 20 L 37 18 L 14 18 z M 14 22 L 14 24 L 37 24 L 37 22 L 14 22 z M 14 26 L 14 28 L 37 28 L 37 26 L 14 26 z M 20.15625 30.5625 C 19.018073 30.5625 18.092026 31.289434 17.46875 32.21875 C 16.845474 33.148066 16.46875 34.342221 16.46875 35.65625 C 16.46875 36.758779 16.811933 37.953072 17.46875 38.96875 C 17.55579 39.103338 17.710608 39.18427 17.8125 39.3125 C 17.489179 39.6017 16.875 40.21875 16.875 40.21875 A 1.0001 1.0001 0 1 0 18.03125 41.84375 C 18.03125 41.84375 18.86957 41.02929 19.46875 40.5 C 19.834846 40.644142 20.166364 40.875 20.59375 40.875 C 23.116116 40.875 24.787515 39.516658 25.75 38.28125 C 26.033084 37.917895 26.183424 37.656368 26.375 37.34375 C 26.44691 37.558262 26.508656 37.762782 26.59375 37.96875 C 26.65535 38.117839 26.726096 38.264326 26.84375 38.4375 C 26.961404 38.610674 27.184417 39 27.8125 39 C 28.478852 39 28.890316 38.681184 29.28125 38.40625 C 29.672184 38.131316 30.023978 37.829684 30.40625 37.53125 C 31.170794 36.934382 31.943322 36.46875 32.5 36.46875 A 1.0001 1.0001 0 1 0 32.5 34.46875 C 31.092678 34.46875 30.027956 35.281368 29.1875 35.9375 C 28.829247 36.217183 28.539929 36.463204 28.28125 36.65625 C 28.24958 36.56285 28.22132 36.506196 28.1875 36.40625 C 28.078554 36.084295 27.942328 35.762858 27.78125 35.4375 C 27.70071 35.274821 27.629356 35.086687 27.46875 34.90625 C 27.308144 34.725813 27.003128 34.46875 26.53125 34.46875 C 25.881945 34.46875 25.658914 34.861475 25.5 35.0625 C 25.341086 35.263525 25.220021 35.443215 25.09375 35.65625 C 24.841209 36.082319 24.560132 36.584204 24.1875 37.0625 C 23.515025 37.925662 22.555191 38.637829 21.03125 38.78125 C 22.057422 37.396651 22.96875 35.674183 22.96875 33.59375 C 22.96875 32.916487 22.845579 32.17979 22.375 31.5625 C 21.904421 30.94521 21.07557 30.5625 20.15625 30.5625 z M 20.15625 32.5625 C 20.59193 32.5625 20.676079 32.64329 20.78125 32.78125 C 20.886421 32.91921 20.96875 33.216013 20.96875 33.59375 C 20.96875 35.189164 20.101533 36.683301 19.15625 37.875 C 18.737317 37.227178 18.46875 36.315721 18.46875 35.65625 C 18.46875 34.738279 18.746276 33.877184 19.125 33.3125 C 19.503724 32.747816 19.938427 32.5625 20.15625 32.5625 z"></path>
</svg>