<svg xmlns="http://www.w3.org/2000/svg" viewBox="0 0 50 50">
    <path d="M 16 2 L 16 3 L 16 14 A 1.0001 1.0001 0 1 0 18 14 L 18 4 L 36 4 L 36 12.90625 L 36 13.90625 L 37 13.90625 L 45.90625 13.90625 L 45.90625 42 L 33 42 A 1.0001 1.0001 0 1 0 33 44 L 46.90625 44 L 47.90625 44 L 47.90625 43 L 47.90625 12.90625 L 47.90625 12.5 L 47.625 12.1875 L 37.71875 2.28125 L 37.40625 2 L 37 2 L 17 2 L 16 2 z M 38 5.4375 L 44.46875 11.90625 L 38 11.90625 L 38 5.4375 z M 16.875 16 C 13.346774 16.06473 11.063329 17.643227 10.125 19.875 C 9.2437796 21.970943 9.4558128 24.429511 10.03125 26.84375 C 9.7427695 27.240477 9.4025275 27.836994 9.4375 28.78125 C 9.478933 29.916644 9.9067851 30.759121 10.34375 31.28125 C 10.621688 31.613358 10.747819 31.660974 10.9375 31.78125 C 11.161611 32.633262 11.491837 33.46844 11.9375 34.0625 C 12.299708 34.545316 12.649566 34.775377 13 35.0625 C 13.01688 35.931939 13.06025 36.643648 13 37.5 C 12.797365 37.966769 12.303365 38.403769 11.375 38.84375 C 10.40788 39.302098 9.0970662 39.716207 7.78125 40.25 C 6.4654338 40.783793 5.1316057 41.448957 4.03125 42.5 C 2.9308943 43.551043 2.1146363 45.028506 2 46.9375 A 1.0001 1.0001 0 0 0 3 48 L 31 48 A 1.0001 1.0001 0 0 0 32 46.9375 C 31.885364 45.028506 31.069125 43.551044 29.96875 42.5 C 28.868375 41.448956 27.534632 40.783793 26.21875 40.25 C 24.902868 39.716207 23.592284 39.302115 22.625 38.84375 C 21.696478 38.403753 21.202812 37.966862 21 37.5 C 20.93975 36.643648 20.98312 35.931939 21 35.0625 C 21.386779 34.75679 21.789146 34.48522 22.125 34 C 22.531605 33.412564 22.797479 32.620975 23 31.8125 C 23.354921 31.573245 24.5 30.690239 24.5 28.96875 C 24.5 28.096814 24.289018 27.480738 23.96875 26.9375 C 24.330389 25.721184 24.753458 23.884449 24.5625 22 C 24.456663 20.955557 24.16877 19.878798 23.46875 19.03125 C 22.85196 18.284473 21.843306 17.860263 20.6875 17.75 C 19.881115 16.746124 18.605743 16 16.90625 16 A 1.0001 1.0001 0 0 0 16.875 16 z M 16.90625 18 C 18.218341 18 19.10942 18.689457 19.375 19.15625 A 1.0001 1.0001 0 0 0 20.25 19.65625 C 21.155237 19.65625 21.569488 19.904767 21.90625 20.3125 C 22.243012 20.720233 22.481212 21.385318 22.5625 22.1875 C 22.725076 23.791865 22.271337 25.840045 21.96875 26.75 A 1.0001 1.0001 0 0 0 22.21875 27.78125 C 22.12511 27.68613 22.5 28.241738 22.5 28.96875 C 22.5 29.695913 21.6875 30.3125 21.6875 30.3125 A 1.0001 1.0001 0 0 0 21.21875 31 C 21.12269 31.676335 20.822219 32.364331 20.46875 32.875 C 20.115281 33.385669 19.655478 33.73682 19.5625 33.78125 A 1.0001 1.0001 0 0 0 19 34.6875 C 19 35.577745 18.914905 36.367592 18.96875 37.40625 C 18.841353 37.471384 18.723624 37.524732 18.5625 37.59375 C 18.038969 37.818008 17.368995 38 17 38 C 16.631005 38 15.948815 37.788522 15.40625 37.5625 C 15.186452 37.470936 15.18615 37.448697 15.03125 37.375 C 15.081819 36.351639 15 35.568973 15 34.6875 A 1.0001 1.0001 0 0 0 14.46875 33.78125 C 14.51454 33.80533 13.935439 33.382526 13.53125 32.84375 C 13.127061 32.304974 12.801922 31.637627 12.71875 31.03125 A 1.0001 1.0001 0 0 0 12.15625 30.25 C 12.15625 30.25 12.06528 30.22737 11.875 30 C 11.684715 29.772629 11.463067 29.388106 11.4375 28.6875 C 11.41949 28.201189 11.78125 27.78125 11.78125 27.78125 A 1.0001 1.0001 0 0 0 12.03125 26.8125 C 11.424885 24.485165 11.315079 22.179727 11.96875 20.625 C 12.622421 19.070273 13.893476 18.055272 16.90625 18 z M 19.71875 39.21875 C 20.267959 39.847276 21.01221 40.291827 21.78125 40.65625 C 22.93481 41.202885 24.246757 41.598043 25.46875 42.09375 C 26.690743 42.589457 27.796031 43.175544 28.59375 43.9375 C 29.157979 44.476434 29.520183 45.175527 29.75 46 L 18.9375 46 C 18.624505 43.521782 17.3125 41.46875 17.3125 41.46875 L 18.125 39.84375 C 18.576375 39.72602 18.981658 39.561355 19.34375 39.40625 C 19.560624 39.31335 19.550944 39.298059 19.71875 39.21875 z M 14.25 39.25 C 14.38219 39.311855 14.471005 39.373349 14.625 39.4375 C 14.969652 39.581075 15.359527 39.704551 15.78125 39.8125 L 16.625 41.46875 C 16.625 41.46875 15.281684 43.544327 14.96875 46 L 4.25 46 C 4.4798166 45.175525 4.8420293 44.476435 5.40625 43.9375 C 6.2039568 43.175543 7.3093162 42.589457 8.53125 42.09375 C 9.7531838 41.598043 11.065308 41.202902 12.21875 40.65625 C 12.974255 40.298193 13.703685 39.861326 14.25 39.25 z"></path>
</svg>