<svg xmlns="http://www.w3.org/2000/svg" viewBox="0 0 50 50">
    <path d="M38.651,41.587h11.41l-0.063-1.06c-0.311-5.208-4.443-6.839-7.765-8.149c-1.844-0.728-3.59-1.417-4.097-2.528	c-0.077-0.936-0.07-1.667-0.063-2.507l0.002-0.339c0.796-0.832,1.516-2.47,1.8-3.841c0.615-0.347,1.346-1.148,1.569-2.993	c0.109-0.923-0.146-1.646-0.513-2.14c0.503-1.74,1.467-6.042-0.266-8.83c-0.738-1.188-1.85-1.941-3.309-2.243	c-0.835-1.014-2.388-1.565-4.456-1.565c-2.374,0.044-4.271,0.623-5.666,1.698c-0.627-0.402-1.344-0.693-2.162-0.855	c-0.944-1.193-2.754-1.843-5.185-1.843c-3.681,0.068-6.375,1.193-8.006,3.343c-1.934,2.548-2.292,6.41-1.07,11.484	c-0.451,0.551-0.783,1.401-0.65,2.513c0.265,2.205,1.122,3.104,1.844,3.465c0.343,1.73,1.288,3.68,2.208,4.597l0.002,0.468	c0.009,1.015,0.017,1.896-0.08,3.033c-0.612,1.405-2.649,2.207-4.999,3.131c-3.908,1.537-8.771,3.449-9.136,9.516L-0.062,47h40.124	l-0.063-1.06C39.891,44.161,39.392,42.747,38.651,41.587z M35.909,8.367l0.244,0.428l0.487,0.067	c1.076,0.15,1.837,0.606,2.327,1.394c0.339,0.546,0.525,1.223,0.616,1.953C39.418,12.087,39.223,12,39,12c-0.553,0-1,0.448-1,1	s0.447,1,1,1c0.244,0,0.46-0.098,0.633-0.243c-0.065,1.577-0.434,3.188-0.784,4.24l-0.008,0.035C38.368,18.11,38,18.504,38,19	c0,0.552,0.447,1,1,1c0.168,0,0.319-0.052,0.458-0.125c-0.002,0.021,0.003,0.034,0,0.056c-0.138,1.144-0.488,1.473-0.562,1.497	l-0.821,0.07l-0.088,0.819c-0.161,1.499-1.08,3.108-1.374,3.336l-0.535,0.281l-0.004,1.079C36.048,27.013,36.026,27,36,27	c-0.553,0-1,0.448-1,1s0.447,1,1,1c0.031,0,0.056-0.015,0.086-0.017c0.013,0.373,0.032,0.761,0.071,1.194l0.059,0.259	c0.697,1.871,2.65,2.754,4.793,3.607C41.032,34.574,41.462,35,42,35c0.269,0,0.51-0.109,0.689-0.281	c0.93,0.386,1.829,0.812,2.619,1.343C45.21,36.03,45.109,36,45,36c-0.553,0-1,0.448-1,1s0.447,1,1,1s1-0.448,1-1	c0-0.215-0.082-0.403-0.198-0.566c0.847,0.67,1.51,1.515,1.879,2.63c-0.261,0.089-0.473,0.274-0.587,0.523h-4.189	C42.748,39.242,42.404,39,42,39s-0.748,0.242-0.905,0.587h-4.143c-0.014,0-0.026,0.008-0.04,0.008	c-0.131-0.295-0.405-0.498-0.732-0.559c-0.761-0.544-1.584-1-2.424-1.401C33.902,37.461,34,37.245,34,37c0-0.552-0.447-1-1-1	c-0.509,0-0.912,0.386-0.975,0.877c-0.381-0.156-0.76-0.307-1.128-0.452c-2.34-0.924-4.368-1.725-4.979-3.131	c-0.096-1.137-0.088-2.02-0.079-3.034l0.002-0.474c0.897-0.918,1.821-2.867,2.157-4.602c0.559-0.289,1.221-0.926,1.604-2.27	C29.723,22.969,29.858,23,30,23c0.553,0,1-0.448,1-1s-0.447-1-1-1c-0.051,0-0.094,0.022-0.143,0.029	c-0.043-0.751-0.303-1.352-0.641-1.778c0.162-0.554,0.372-1.36,0.547-2.299C29.841,16.972,29.916,17,30,17c0.553,0,1-0.448,1-1	c0-0.542-0.432-0.977-0.97-0.994c0.115-1.315,0.092-2.729-0.223-4.045C29.871,10.974,29.931,11,30,11c0.553,0,1-0.448,1-1	s-0.447-1-1-1c-0.31,0-0.576,0.149-0.759,0.37c-0.091-0.185-0.186-0.367-0.295-0.542c-0.073-0.117-0.167-0.208-0.245-0.318	c0.87-0.586,2.017-0.94,3.42-1.057C32.287,7.774,32.613,8,33,8c0.388,0,0.714-0.227,0.88-0.549	C34.898,7.576,35.645,7.902,35.909,8.367z M2.128,45c0.756-3.967,4.303-5.361,7.741-6.714c2.739-1.077,5.327-2.095,6.188-4.409	l0.059-0.259c0.118-1.306,0.109-2.311,0.1-3.375l-0.005-0.925l0.018-0.594l-0.535-0.281c-0.438-0.297-1.608-2.315-1.801-4.119	l-0.087-0.823l-0.825-0.068c-0.128-0.011-0.645-0.371-0.833-1.94c-0.096-0.807,0.296-1.091,0.298-1.092l0.635-0.386l-0.187-0.719	c-1.214-4.671-1.013-8.251,0.582-10.352c1.243-1.638,3.413-2.497,6.432-2.552c1.877,0,3.265,0.469,3.711,1.253l0.244,0.428	l0.488,0.068c1.336,0.186,2.284,0.755,2.897,1.742c1.536,2.472,0.647,7.04-0.12,9.349l-0.211,0.746l0.639,0.423	c0.004,0.002,0.396,0.287,0.298,1.093c-0.188,1.569-0.705,1.93-0.833,1.94l-0.824,0.068l-0.088,0.822	c-0.194,1.814-1.329,3.829-1.73,4.11l-0.534,0.281l-0.005,1.527c-0.009,1.064-0.018,2.07,0.1,3.376l0.059,0.259	c0.86,2.313,3.438,3.331,6.167,4.408c3.424,1.352,6.956,2.747,7.71,6.715H2.128z M35,16c0-0.552,0.447-1,1-1s1,0.448,1,1	s-0.447,1-1,1S35,16.552,35,16z M38,37c0-0.552,0.447-1,1-1s1,0.448,1,1s-0.447,1-1,1S38,37.552,38,37z M35,10c0-0.552,0.447-1,1-1	s1,0.448,1,1s-0.447,1-1,1S35,10.552,35,10z M31,28c0,0.552-0.447,1-1,1s-1-0.448-1-1s0.447-1,1-1S31,27.448,31,28z M28,31	c0,0.552-0.447,1-1,1s-1-0.448-1-1s0.447-1,1-1S28,30.448,28,31z M31,34c0,0.552-0.447,1-1,1s-1-0.448-1-1s0.447-1,1-1	S31,33.448,31,34z M35,34c0-0.552,0.447-1,1-1s1,0.448,1,1s-0.447,1-1,1S35,34.552,35,34z M34,13c0,0.552-0.447,1-1,1s-1-0.448-1-1	s0.447-1,1-1S34,12.448,34,13z M34,19c0,0.552-0.447,1-1,1s-1-0.448-1-1s0.447-1,1-1S34,18.448,34,19z M34,25c0,0.552-0.447,1-1,1	s-1-0.448-1-1s0.447-1,1-1S34,24.448,34,25z M35,22c0-0.552,0.447-1,1-1s1,0.448,1,1s-0.447,1-1,1S35,22.552,35,22z M34,31	c0,0.552-0.447,1-1,1s-1-0.448-1-1s0.447-1,1-1S34,30.448,34,31z"></path>
</svg>