<?xml version="1.0" encoding="iso-8859-1"?>
<!-- Generator: Adobe Illustrator 17.1.0, SVG Export Plug-In . SVG Version: 6.00 Build 0)  -->
<!DOCTYPE svg PUBLIC "-//W3C//DTD SVG 1.1//EN" "http://www.w3.org/Graphics/SVG/1.1/DTD/svg11.dtd">
<svg version="1.1" id="Capa_1" xmlns="http://www.w3.org/2000/svg" xmlns:xlink="http://www.w3.org/1999/xlink" x="0px" y="0px"
	 viewBox="0 0 416.042 416.042" style="enable-background:new 0 0 416.042 416.042;" xml:space="preserve">
<path d="M169.562,355.934c0,28.013-25.038,48.154-74.417,59.863c-0.698,0.166-1.397,0.245-2.084,0.245
	c-4.075,0-7.768-2.787-8.75-6.925c-1.146-4.836,1.844-9.687,6.681-10.834c27.632-6.552,60.57-19.218,60.57-42.349
	c0-4.971,4.029-9,9-9S169.562,350.963,169.562,355.934z M188.575,277.021c-2.503,4.294-1.051,9.805,3.243,12.308
	c6.03,3.515,11.023,5.086,16.216,5.094c5.168-0.008,10.162-1.579,16.192-5.095c4.294-2.504,5.745-8.015,3.241-12.309
	s-8.016-5.744-12.309-3.241c-4.059,2.367-6.025,2.643-7.125,2.645c-1.125-0.001-3.09-0.278-7.151-2.645
	C196.589,271.276,191.079,272.726,188.575,277.021z M323.834,398.282c-27.632-6.552-60.57-19.218-60.57-42.349c0-4.971-4.029-9-9-9
	s-9,4.029-9,9c0,28.013,25.038,48.154,74.417,59.863c0.699,0.166,1.396,0.245,2.084,0.245c4.075,0,7.768-2.788,8.75-6.925
	C331.661,404.28,328.671,399.429,323.834,398.282z M250.038,166.711c0,4.971,4.029,9,9,9h0.003c4.971,0,8.999-4.029,8.999-9
	s-4.031-9-9.001-9S250.038,161.74,250.038,166.711z M392.643,185.903c0,28.697-6.399,56.408-19.021,82.365
	c-12.162,25.011-29.445,47.117-51.37,65.702c-0.893,0.757-1.89,1.309-2.935,1.663c-0.833,0.282-1.719,0.445-2.637,0.469
	c-0.006,0-0.014,0-0.021,0c-0.255,0.005-0.511,0.001-0.766-0.014c-0.01-0.001-0.017-0.002-0.024-0.001
	c-1.206-0.075-2.343-0.386-3.369-0.884c-1.04-0.505-1.999-1.218-2.81-2.136c-0.175-0.197-0.341-0.402-0.498-0.615
	c-0.003-0.004-0.006-0.009-0.01-0.013c-0.001-0.002-0.002-0.003-0.004-0.005c-0.544-0.739-0.959-1.537-1.248-2.367
	c0-0.002-0.001-0.005-0.002-0.008c-0.001-0.003-0.002-0.005-0.003-0.008c-0.296-0.854-0.467-1.766-0.49-2.71
	c0-0.006,0-0.012,0-0.018c0-0.001,0-0.004,0-0.006c-0.005-0.202-0.003-0.404,0.006-0.606c0.436-10.884-2.513-21.774-8.329-30.862
	c-11.835,12.052-25.343,22.653-39.673,31.005c-19.862,11.575-35.716,16.748-51.405,16.774c-15.722-0.026-31.576-5.199-51.435-16.774
	c-14.551-8.481-27.442-19.277-38.349-31.812c-5.941,7.074-9.547,21.445-9.642,31.026c-0.001,0.163-0.007,0.324-0.018,0.484
	c0.138,2.237-0.554,4.528-2.118,6.373c-3.214,3.792-8.894,4.26-12.685,1.046c-21.926-18.585-39.209-40.69-51.37-65.702
	c-12.621-25.957-19.021-53.668-19.021-82.365c0-44.333,11.331-82.858,33.678-114.505C77.063,43.096,105.462,21.484,139.204,8.9
	c10.078-3.759,20.618-6.699,31.327-8.74c4.883-0.93,9.595,2.274,10.525,7.157c0.93,4.883-2.274,9.595-7.157,10.525
	c-9.716,1.851-19.273,4.517-28.405,7.923C79.34,50.437,41.399,108.805,41.399,185.903c0,45.374,18.563,89.227,51.438,122.649
	c2.432-10.24,6.982-20.901,14.283-27.897c-7.032-10.251-12.894-21.355-17.451-33.074c-0.024,0.011-0.048,0.022-0.072,0.033
	c-4.534,2.041-9.861,0.02-11.901-4.512c-7.931-17.616-12.915-36.172-14.813-55.154c-0.304-3.046-0.55-6.142-0.732-9.205
	c-0.294-4.961,3.489-9.223,8.451-9.518c0.902-0.056,1.781,0.027,2.618,0.226c-0.034-0.222-0.065-0.445-0.094-0.668L71.6,157.159
	c-1.15-8.778,1.414-17.186,7.034-23.067c2.392-2.503,5.262-4.463,8.439-5.819c12.45-38.374,37.99-67.42,72.295-82.063
	c7.085-3.025,14.49-5.394,22.011-7.042c0.886-0.207,1.809-0.282,2.735-0.209c0.926,0.071,1.824,0.285,2.666,0.625
	c53.133,20.506,94.676,64.825,108.431,115.691c10.621,39.278,3.61,76.975-19.741,106.146c-3.106,3.881-8.771,4.508-12.65,1.402
	c-3.881-3.106-4.508-8.77-1.402-12.65c10.862-13.569,17.504-29.414,19.745-46.539l-38.655,3.292
	c-8.49,0.725-16.506-2.164-22.002-7.917c-5.619-5.882-8.182-14.289-7.03-23.065l0.383-2.925c-3.868-0.749-7.839-0.899-11.734-0.445
	l0.442,3.373c1.15,8.776-1.413,17.183-7.033,23.064c-5.497,5.752-13.515,8.635-21.998,7.916l-66.94-5.701
	c-3.363-0.287-6.651-1.103-9.772-2.361c3.703,47.075,29.37,89.432,68.842,112.439c16.962,9.886,30.03,14.304,42.37,14.325
	c12.308-0.02,25.375-4.438,42.342-14.325c36.313-21.167,78.719-66.408,78.719-124.25c0-48.828-26.21-95.114-73.802-130.334
	c-3.995-2.957-4.837-8.593-1.88-12.588c2.957-3.996,8.592-4.838,12.588-1.881c52.294,38.7,81.094,90.125,81.094,144.803
	c0,28.293-9.212,56.912-26.641,82.761c-2.871,4.259-5.962,8.429-9.245,12.484c0.671,0.538,1.277,1.183,1.79,1.928
	c4.976,7.235,8.55,15.402,10.566,23.957c32.653-33.376,51.076-77.07,51.076-122.279c0-65.591-43.755-123.43-84.408-149.412
	c-28.136-17.982-55.623-22.335-77.4-12.258c-4.511,2.088-9.86,0.123-11.948-4.388c-2.087-4.511-0.123-9.86,4.388-11.948
	c27.546-12.748,61.16-7.979,94.653,13.426C354.517,56.213,392.643,123.89,392.643,185.903z M106.728,126.697l60.845,5.182
	c13.351,1.135,25.491,10.61,30.854,23.03c6.287-0.917,12.733-0.757,18.991,0.467c5.256-12.648,17.532-22.348,31.052-23.498
	c0.259-0.022,0.517-0.033,0.773-0.033c4.625,0,8.558,3.544,8.958,8.238c0.421,4.953-3.252,9.309-8.205,9.73
	c-8.049,0.685-16.063,8.557-17.148,16.847l-1.523,11.624c-0.446,3.396,0.334,6.34,2.198,8.291c1.764,1.846,4.344,2.683,7.46,2.416
	l40.923-3.486c-0.38-8.341-1.73-16.884-4.068-25.532c-12.077-44.663-48.395-83.772-95.112-102.64
	c-5.559,1.363-11.026,3.185-16.288,5.431c-8.528,3.641-16.433,8.34-23.621,13.988c25.235,1.377,50.144,9.037,71.886,22.321
	c4.242,2.592,5.579,8.131,2.987,12.372c-2.591,4.242-8.131,5.579-12.372,2.988c-24.133-14.745-52.668-21.644-80.629-19.537
	C117.349,104.197,111.302,114.87,106.728,126.697z M90.972,166.442c1.088,8.29,9.102,16.163,17.15,16.848h0l66.939,5.701
	c3.12,0.268,5.695-0.57,7.458-2.416c1.863-1.95,2.645-4.895,2.199-8.291l-1.522-11.624c-1.088-8.289-9.102-16.162-17.15-16.847
	l-66.94-5.701c-0.377-0.032-0.748-0.048-1.108-0.048c-2.621,0-4.8,0.841-6.35,2.463c-1.864,1.95-2.645,4.895-2.2,8.292
	L90.972,166.442z M204.994,248.721h6.052c4.971,0,9-4.029,9-9s-4.029-9-9-9h-6.052c-4.971,0-9,4.029-9,9
	S200.024,248.721,204.994,248.721z M154.397,175.711c4.971,0,9-4.029,9-9s-4.029-9-9-9h-0.004c-4.971,0-8.998,4.029-8.998,9
	S149.426,175.711,154.397,175.711z"/>
<g>
</g>
<g>
</g>
<g>
</g>
<g>
</g>
<g>
</g>
<g>
</g>
<g>
</g>
<g>
</g>
<g>
</g>
<g>
</g>
<g>
</g>
<g>
</g>
<g>
</g>
<g>
</g>
<g>
</g>
</svg>
